<?xml version="1.0" encoding="UTF-8"?>
<svg width="581px" height="582px" viewBox="0 0 581 582" version="1.1" xmlns="http://www.w3.org/2000/svg" xmlns:xlink="http://www.w3.org/1999/xlink">
    <title>Shape</title>
    <g id="Page-1" stroke="none" stroke-width="1" fill="none" fill-rule="evenodd">
        <path d="M556.953125,189 C572.984375,189 581,180.877358 581,164.632075 L581,91.8254717 C581,61.3160377 573.231771,38.384434 557.695312,23.0306604 C542.158854,7.67688679 518.854167,0 487.78125,0 L415.046875,0 C399.015625,0 391,7.9245283 391,23.7735849 C391,31.5 393.078125,37.4433962 397.234375,41.6037736 C401.390625,45.7641509 407.328125,47.8443396 415.046875,47.8443396 L486.890625,47.8443396 C501.536458,47.8443396 512.916667,51.7570755 521.03125,59.5825472 C529.145833,67.4080189 533.203125,79.0471698 533.203125,94.5 L533.203125,164.632075 C533.203125,180.877358 541.119792,189 556.953125,189 Z M93.21875,582 L165.65625,582 C181.885417,582 190,574.075472 190,558.226415 C190,550.5 187.921875,544.556604 183.765625,540.396226 C179.609375,536.235849 173.572917,534.15566 165.65625,534.15566 L93.8125,534.15566 C78.96875,534.15566 67.5885417,530.242925 59.671875,522.417453 C51.7552083,514.591981 47.796875,502.95283 47.796875,487.5 L47.796875,417.367925 C47.796875,401.122642 39.78125,393 23.75,393 C7.91666667,393 0,401.122642 0,417.367925 L0,489.877358 C0,520.584906 7.76822917,543.615566 23.3046875,558.96934 C38.8411458,574.323113 62.1458333,582 93.21875,582 Z M415.046875,582 L487.78125,582 C518.854167,582 542.158854,574.323113 557.695312,558.96934 C573.231771,543.615566 581,520.584906 581,489.877358 L581,417.367925 C581,401.122642 572.984375,393 556.953125,393 C549.234375,393 543.346354,395.080189 539.289062,399.240566 C535.231771,403.400943 533.203125,409.443396 533.203125,417.367925 L533.203125,487.5 C533.203125,502.95283 529.145833,514.591981 521.03125,522.417453 C512.916667,530.242925 501.536458,534.15566 486.890625,534.15566 L415.046875,534.15566 C399.015625,534.15566 391,542.179245 391,558.226415 C391,574.075472 399.015625,582 415.046875,582 Z M23.75,189 C31.6666667,189 37.6536458,186.870283 41.7109375,182.610849 C45.7682292,178.351415 47.796875,172.358491 47.796875,164.632075 L47.796875,94.5 C47.796875,79.0471698 51.7552083,67.4080189 59.671875,59.5825472 C67.5885417,51.7570755 78.96875,47.8443396 93.8125,47.8443396 L165.65625,47.8443396 C181.885417,47.8443396 190,39.8207547 190,23.7735849 C190,7.9245283 181.885417,0 165.65625,0 L93.21875,0 C62.1458333,0 38.8411458,7.67688679 23.3046875,23.0306604 C7.76822917,38.384434 0,61.3160377 0,91.8254717 L0,164.632075 C0,180.877358 7.91666667,189 23.75,189 Z" id="Shape" fill="#FFFFFF" fill-rule="nonzero"></path>
    </g>
</svg>