<?xml version="1.0" encoding="UTF-8"?>
<svg width="755px" height="650px" viewBox="0 0 755 650" version="1.1" xmlns="http://www.w3.org/2000/svg" xmlns:xlink="http://www.w3.org/1999/xlink">
    <title>plutus-icon</title>
    <g id="icon" stroke="none" stroke-width="1" fill="none" fill-rule="evenodd">
        <path d="M377.5,0 C395.449254,0 410,14.5507456 410,32.5 L409.999999,81.5 L663.5,81.5 C675.09798,81.5 684.5,90.9020203 684.5,102.5 C684.5,114.09798 675.09798,123.5 663.5,123.5 L644.661999,123.5 L719.944999,303.593 L750.617438,303.593301 C752.954534,303.593301 754.849124,305.487891 754.849124,307.824987 L754.846431,307.97595 L754.838353,308.12672 C751.577639,353.740556 699.395005,390 635.5,390 C572.274602,390 520.517375,354.496558 516.280238,309.557679 L516.166422,308.193034 C515.995029,305.830269 517.771488,303.775928 520.134253,303.604535 C520.237528,303.597043 520.341041,303.593294 520.444587,303.593294 L550.266999,303.593 L625.550999,123.5 L409.999999,123.5 L409.999999,552 L479.893849,552 C483.416508,552 486.679331,553.853445 488.483219,556.879188 L534.985272,634.879188 C537.813418,639.622966 536.260492,645.761224 531.516714,648.58937 C529.968146,649.512596 528.19879,650 526.395901,650 L227.604099,650 C222.081251,650 217.604099,645.522847 217.604099,640 C217.604099,638.197111 218.091503,636.427756 219.014728,634.879188 L265.516781,556.879188 C267.320669,553.853445 270.583492,552 274.106151,552 L344.999999,552 L344.999999,123.499 L129.000999,123.499 L204.030999,303.544 L234.614923,303.54471 C236.953405,303.54471 238.849119,305.440423 238.849119,307.778905 L238.846426,307.929872 L238.838353,308.080648 C235.577639,353.720152 183.395005,390 119.5,390 C56.274602,390 4.51737523,354.476579 0.280237619,309.512412 L0.166422146,308.146999 C-0.0049771843,305.782813 1.77262749,303.727315 4.1368133,303.555916 C4.24009255,303.548428 4.34360894,303.544681 4.44715925,303.544681 L34.9059987,303.544 L109.935999,123.499 L90.5,123.5 C78.9020203,123.5 69.5,114.09798 69.5,102.5 C69.5,90.9020203 78.9020203,81.5 90.5,81.5 L344.999999,81.499 L345,32.5 C345,14.5507456 359.550746,0 377.5,0 Z M635.105999,144.107 L568.436999,303.593 L701.774999,303.593 L635.105999,144.107 Z M119.467999,144.191 L53.0619987,303.544 L185.874999,303.544 L119.467999,144.191 Z" id="plutus-icon" fill="#000000"></path>
    </g>
</svg>